<svg version="1.1" xmlns="http://www.w3.org/2000/svg" x="0" y="0" width="24" height="20" viewBox="0 0 32 28" style="enable-background:new 0 0 32 30" xml:space="preserve"><style>.st0{fill:#60be92}.st1{fill:#eba272}.st2{fill:#b07454}.st3{fill:#a3a3cd}.st4{fill:#a1d3a2}.st6{fill:none;stroke:#000;stroke-width:.36;stroke-linecap:round;stroke-linejoin:round;stroke-miterlimit:3.6}</style><path class="st0" d="m4.06 7.11 10.9-5.02h1.53l10.8 4.95.12.41-11.6 4.76L3.92 7.37l.14-.26z"/><path class="st1" d="m24.81 10.91-.9.38.02 1.31.96-.34-.08-1.35z"/><path class="st1" d="m27.58 17.59.07 3.04c.04 1.93.5 2.4-.43 2.78l-6.04 2.89-1 .51-4.44 1.84.02-.41c0-.72.15-1.27.16-2.38v-3.6l-.11-6.38.12-2.69 3.43-1.39v1.3l.92-.37.92-.37 2.72-1.09.02 1.28 2.69-1.09.7-.26.16 2.49.06 2.59.03 1.31z"/><path class="st0" d="M25.06 8.41c1.27-.5 2.71-1.99 2.75-.19l-.28 2.88-.89.36-1.81.75v-1.24l-.89.3.02 1.27-.91.37-1.83-.56-.93.37-.92.37-.93.37-.93.37-.94.38-.76.3c.3-1.55-.27-2.63.84-3.06l3.64-1.18.91-.36c0 .02 3.86-1.5 3.86-1.5z"/><path class="st2" d="m23.96 12.58 1.81-.73.9-.36.89-.36.03 1.27-.89.37-.9.37-.04.02.02 1.21-.92.38-.02-1.22-.86.35-.02-1.3zm-5.93 4.09-.94.38v1.33l.94-.39v-1.32zm1.55-3.65-.91.36v1.3l.94-.42-.03-1.24zM22.13 12l-.01-1.28.9-.36.01 1.28.01 1.28-.91.37-.87.34-.04-1.27.91-.36z"/><path class="st2" d="m21.28 13.62-.91.4v1.28l.92-.38-.01-1.3z"/><path class="st1" d="m21.22 11.06-.92.37v1.31l.92-.38v-1.3z"/><path class="st2" d="m16.86 14.1-.92.37v1.31l.92-.38v-1.3zm7.99.62-.92.37v1.31l.93-.37-.01-1.31z"/><path class="st2" d="m16.86 12.8.94-.38.93-.37v1.31L15.9 14.5l.01-1.33.95-.37zm10.44 3.72-.9.38.03 1.31.9-.38-.03-1.31zm-.92-.92-.9.38.02 1.31.9-.38-.02-1.31z"/><path class="st3" d="m25.95 19.88-.91.39.02 1.34.92-.4-.03-1.33z"/><path class="st2" d="m17.91 24.62.93-.4.02 1.35-.93.4-.93.4-.01-1.36.92-.39zm7.1-5.68-.92.39.02 1.34.92-.4-.02-1.33zm-6.02-1.33.94-.39v1.34l-.95.39-.95.4.01-1.35.95-.39z"/><path class="st3" d="m22.27 14.52-.94.39v1.35l.95-.4-.01-1.34z"/><path class="st2" d="m19.73 22.53-.93.39.01 1.33.93-.39-.01-1.33zm-1.89-1.96-.94.4v1.36l.94-.4v-1.36zm3.02-2.43-.94.39v1.34l.94-.4v-1.33zm-3.96 4.19-.95.41v1.37l.95-.41v-1.37zm6.27.1.01-1.37.96-.4-.01 1.37-.01 1.38-.96.41-.97.42.01-1.39.97-.42z"/><path class="st2" d="m21.27 24.57.92-.4.02 1.36-.92.41-.93.41-.02-1.37.93-.41z"/><path class="st4" d="m26.41 8.91-.89.36.02 1.27.89-.36-.02-1.27zm-2.5 1.1-.89.35.02 1.27.89-.36-.02-1.26z"/><path class="st1" d="m3.97 17.59-.07 3.04c-.04 1.93-.5 2.4.43 2.78l6.04 2.89 1 .51 4.44 1.84-.02-.41c0-.72-.15-1.27-.16-2.38v-3.6l.22-6.38-.85-.35-.94-.38-.94-.38-.01-2.61-.92-.37v1.3l-.92-.37-.92-.37-2.72-1.09-.03 1.3-2.69-1.09-.05 2.56-.8-.33L4 16.28l-.03 1.31z"/><path class="st0" d="M6.49 8.41c-1.27-.5-2.71-1.99-2.75-.19l.32 5.47.8.33.03-1.28.03-1.27 1.79.72.9.36.91.37 1.83.74.92.37v-1.3l.92.37.93.37.93.37.94.38.76.3c-.3-1.55.27-2.63-.84-3.06l-3.64-1.18-.91-.36c0 .01-3.87-1.51-3.87-1.51z"/><path class="st2" d="m8.51 12.92-1.81-.73-.89-.36-.89-.36-.03 1.27-.03 1.28.9.37.02-1.29.9.37.04.02-.02 1.21.92.38.02-1.22.86.35.01-1.29zm3.67 2.8.94.38v1.33l-.94-.39v-1.32zm0-3.91.92.37v1.3l-.93-.37.01-1.3zM9.43 12l.01-1.28-.9-.36-.01 1.28-.01 1.28.91.37.92.37.01-1.29-.93-.37zm.91 1.66.92.37v1.31l-.92-.38v-1.3zm.92-.93.92.37v1.3l-.93-.37.01-1.3zm3.72 1.5-.94-.38-.93-.37v1.31l.94.38.01 1.32.94.39-.01-1.33.95.38-.01-1.33-.95-.37zM3.91 16.24l.9.38-.03 1.31-.9-.38.03-1.31zm.93-.92.9.38-.03 1.3-.9-.38.03-1.3z"/><path class="st3" d="m5.67 19.65.91.39-.02 1.34-.92-.4.03-1.33z"/><path class="st2" d="m8.42 20.83-.93-.4-.02 1.35.93.4.93.41.01-1.36-.92-.4zM6.6 18.71l.92.39-.02 1.33-.92-.4.02-1.32zm7.46-.88-.94-.39v1.34l.95.4.95.4-.01-1.35-.95-.4z"/><path class="st3" d="m12.18 18.38.94.39v1.35l-.95-.4.01-1.34z"/><path class="st2" d="m9.39 17.22.93.39-.01 1.33-.93-.39.01-1.33zm.91 3.06.94.4v1.36l-.94-.4v-1.36zm.94-2.29.94.39v1.34l-.94-.4v-1.33zm-.01 4.05.95.41v1.37l-.95-.41v-1.37zm3.45.26-.01-1.37-.96-.4.01 1.37.01 1.38.96.41.01 1.39.97.42-.01-1.4-.01-1.39-.97-.41zm-8.14.5-.92-.4-.02 1.36.92.41.93.41.02-1.37-.93-.41z"/><path class="st4" d="m4.94 10.2.89.36-.02 1.27-.89-.36.02-1.27zM5.85 9.3l.89.35-.02 1.27-.89-.36.02-1.26z"/><path d="m16.67 2.17 10.14 4.61c.51.23.84.75.84 1.31v14.35c0 .56-.33 1.08-.84 1.31l-10.14 4.61c-.57.26-1.22.26-1.79 0L4.74 23.75c-.51-.23-.84-.75-.84-1.31V8.09c0-.56.33-1.08.84-1.31l10.14-4.61a2.23 2.23 0 0 1 1.79 0z" style="fill:none;stroke:#000;stroke-width:.72;stroke-linecap:round;stroke-linejoin:round;stroke-miterlimit:3.6"/><path class="st6" d="M15.78 12.22v16.2M4.26 7.53l11.52 4.68L27.3 7.53M6.76 9.62l-.02 1.32-.89-.38-.04 1.25m-1.78 1.83 1.02.39v-2.46l2.65.99m.79-.89.04-1.37.89.33-.02 1.33.95.34-.05 1.36 1.01.38.04-1.33.79.29.04-1.23.93.35-.04 1.31 1.83.72m-6.41-1.84-.01.55"/><path class="st6" d="m4.99 14.01.82.31.02-1.16.86.33-.02 1.21.93.36.06-1.24.76.32m1.89.84.98.34.02-1.39m1.76-.5-.02 1.29.95.43-.04 1.3 1.02.42.02-1.32.76.24 1.1-.39-.01-1.3 1.81-.71v1.3l.94-.42-.02-1.24M3.93 16.24l1.09.41.05-1.23.66.27m3.63 2.84.92.39.03-1.32m1.88-1.87v1.31l.93.4-.01-1.36m1.9 2.15v1.32l-.44-.18m-2.39.34v-1.32l.83.35m.6.24.36.14m-8.34 1.86.92.39.02-1.33.92.39.01-1.32-.9-.39m.88 3.06 1.86.81v-1.37m.95.41.94.41v1.37m2.49-2.88.01 2.74.96.42.03 1.38M5.59 23.8l.03-1.39.94.41m.55.23.34.16m.01.62v.34"/><path class="st4" d="m7.74 7.65-.9-.36.91-.35.91.35-.92.36zm1.8.01-.91-.35.91-.35.91.35-.91.35zm2.35-2.03-.91-.35.91-.35.91.35-.91.35zm1.8.01-.91-.35.91-.35.91.35-.91.35z"/><path class="st4" d="m12.81 5.99-.91-.35.91-.35.91.35-.91.35zm2.17 4.33-.91-.35.91-.35.91.35-.91.35zm1.79.01-.91-.35.91-.35.91.35-.91.35zm6.79-2.79-.91-.35.91-.35.91.35-.91.35zm-8.57 2.08-.91-.35.91-.35.91.35-.91.35zm2.87-4.85-.91-.35.91-.35.91.35-.91.35zm-2.08-.93-.91-.35.91-.35.91.35-.91.35z"/><path class="st4" d="m16.97 5.12-.91-.35.91-.35.91.35-.91.35z"/><path class="st4" d="m17.88 5.46-.91-.35.91-.35.91.35-.91.35zm-5.53 1.82-.91-.35.91-.35.91.35-.91.35z"/><path class="st4" d="m14.08 7.3-.91-.35.91-.35.91.35-.91.35z"/><path class="st4" d="m14.97 6.96-.91-.36.91-.35.91.35-.91.36zm1.89 1.1-.91-.35.91-.35.91.35-.91.35z"/><path class="st4" d="m15.98 8.4-.91-.35.91-.35.91.35-.91.35z"/><path class="st4" d="m17.77 8.39-.91-.35.91-.35.91.35-.91.35zm2.64-1.64-.91-.35.91-.35.91.35-.91.35z"/><path class="st4" d="m18.68 8.74-.91-.35.91-.35.91.35-.91.35zm1.73-1.29-.91-.36.91-.35.91.35-.91.36z"/><path class="st6" d="m18.67 13.39.01-1.3-2 .8m3.01.1.62-.24v-1.31l.92-.37.01 1.3.9-.37-.01-1.28.9-.35.03 2.56-1.77.7.01 1.3-.92.38m6.96-4.1-2.51 1.01v-1.24l-.89.3-.02-1.26-.89.35m3.38-1.46.03 1.27-.89.36m-1.59 2.04.01 1.29.86-.35.02 1.2-.92.37v1.31m-1.66-1.88v1.34l-.95.4m4.45-1.9-.02-1.21m.75-.3 1.08-.45m-2.1 3.57.02 1.31.9-.38.03 1.31m-9.34-1.16v1.33l.95-.38-.01 1.35.82-.37m.11-1.39.97-.38-.01 1.31.94-.39v1.34l-.94.4m-3.96 4.24.95-.41v-1.37l.94-.4-.01-1.35M17 26.37l1.86-.81-.05-1.32.93-.39-.01-1.33m.63 3.82-.02-1.37.51-.22m.76-.36.58-.22.01-1.33.97-.41.01-1.37m.91-1.73.92-.39.02 1.33.91-.39.02 1.34M6.84 7.29l.91.35.89-.34.91.35m2.8-1.07.91.35 1.71-.68.91.35m-.89 2.31-.91.35.91.35m.87.37.91.35.91-.35m-2.61-1.93.91.35.89-.36.71.27M14.6 5.29l-.91-.35-.89.35-.91-.36-.91.35m6.9.18-1.82-.7 1.8-.7m-2.99-.57.91-.35.91.35m2.81 3.6.91.35.91-.35M18.31 8.6l.37.14.91-.35m3.97-1.55.91.35-.91.35"/></svg>