<?xml version="1.0" encoding="utf-8"?>
<!-- Generator: Adobe Illustrator 26.0.0, SVG Export Plug-In . SVG Version: 6.00 Build 0)  -->
<svg version="1.1" id="图层_1" xmlns="http://www.w3.org/2000/svg" xmlns:xlink="http://www.w3.org/1999/xlink" x="0px" y="0px"
	 viewBox="0 0 764 586" style="enable-background:new 0 0 764 586;" xml:space="preserve">
<style type="text/css">
	.st0{fill:#6666CC;}
</style>
<desc>Created with Sketch.</desc>
<g id="LOGO">
	<g id="画板" transform="translate(-1373.000000, -1020.000000)">
		<g id="反色LOGO备份" transform="translate(1242.000000, 800.000000)">
			<path id="填充色LOGO" class="st0" d="M717.3,221.8c70.7,10.1,131.4,74.2,149.1,155.7c9.9,44.6,17.1,89.1,21.8,133.3
				c4.7,44.7,6.7,89.2,5.9,133.6c-2.1,90.3-60.3,161.1-144.6,161.1c-29,0-44.6-5.9-59.7-20.4l-7.6-7.6l-1.4-1.3
				c-1.4-1.3-2.7-2.4-4.1-3.4l-1.9-1.3c-20.2-13.7-63.6-22-153.1-22.5l-8.8,0l-8.8,0c-89.6,0.5-133,8.8-153.3,22.5l-1.9,1.3
				c-1.4,1.1-2.7,2.2-4.1,3.5l-1.4,1.3l-7.6,7.6c-15.1,14.5-30.6,20.4-59.5,20.4c-89,0-142.4-67.8-144.6-161.2
				c-0.9-44.3,1.1-88.8,5.9-133.5c4.7-44.2,12-88.6,21.8-133.2c17.7-81.6,78.4-145.7,149.1-155.8c23.9-3.4,37.6-1.7,51.3,6.3
				l2.4,1.4l7.7,5.1l2,1.3c2,1.2,4,2.2,6.3,3.3l2.5,1.1c20.2,8.3,56.5,13.4,120.3,13.9l12,0.1l12.3-0.1c63.7-0.6,99.9-5.7,120.1-14
				l2.4-1c2.3-1,4.3-2.1,6.3-3.3l2-1.3c0.9-0.6,5.5-3.6,7.7-5.1l2.4-1.4C679.7,220.1,693.5,218.4,717.3,221.8z M559.8,568.4
				l-0.2,1.2c-0.9,9-7.4,16-15.8,17c-9.3,1-17.7-5.9-19.3-15.7l-0.2-1.3c-1.9-19.5-27.8-20-30.8-1.4l-0.2,1.4c-0.9,9-7.4,16-15.8,17
				c-9.3,1-17.7-5.9-19.3-15.7l-0.2-1.3c-0.9-9.2-8.5-15.9-17.1-14.9c-8.6,0.9-14.8,9.2-13.9,18.4c2.8,28.8,26.8,49.8,53.6,46.8
				c10-1.1,19.1-5.5,26.4-12l1.6-1.6c9.9,9.8,23.6,15.2,38.1,13.6c23-2.6,41.2-22.1,43.5-46.8c0.9-9.2-5.3-17.4-13.9-18.4
				C568.6,553.8,561.2,559.9,559.8,568.4z M696.5,412.5h-134c-1.7,0-3,1.3-3,3l0,0v35.8c0,1.7,1.3,3,3,3l0,0l84.9,0
				c-1.5,5.3-2.3,10.9-2.3,16.7s0.8,11.4,2.3,16.7l-84.9,0c-1.7,0-3,1.3-3,3l0,0v35.8c0,1.7,1.3,3,3,3l0,0h134c0.2,0,0.4,0,0.6-0.1
				c0.8,0,1.7,0.1,2.5,0.1c30.1,0,54.5-26.2,54.5-58.5s-24.4-58.5-54.5-58.5c-0.8,0-1.7,0-2.5,0.1
				C697,412.5,696.8,412.5,696.5,412.5L696.5,412.5z M416.5,412.5h-142c-1.7,0-3,1.3-3,3l0,0v35.8c0,1.7,1.3,3,3,3l0,0l92.7,0
				c-1.5,5.3-2.3,10.9-2.3,16.7s0.8,11.4,2.3,16.7l-92.7,0c-1.7,0-3,1.3-3,3l0,0v35.8c0,1.7,1.3,3,3,3l0,0h142c0.2,0,0.4,0,0.6-0.1
				c0.8,0,1.6,0.1,2.4,0.1c30.1,0,54.5-26.2,54.5-58.5s-24.4-58.5-54.5-58.5c-0.8,0-1.6,0-2.4,0.1
				C416.9,412.5,416.7,412.5,416.5,412.5L416.5,412.5z"/>
		</g>
	</g>
</g>
</svg>
