<?xml version="1.0" encoding="utf-8"?>
<!-- Generator: Adobe Illustrator 26.0.0, SVG Export Plug-In . SVG Version: 6.00 Build 0)  -->
<svg version="1.1" id="图层_1" focusable="false" xmlns="http://www.w3.org/2000/svg" xmlns:xlink="http://www.w3.org/1999/xlink"
	 x="0px" y="0px" viewBox="0 0 576 512" style="enable-background:new 0 0 576 512;" xml:space="preserve">
<style type="text/css">
	.st0{fill:#2AAE67;}
</style>
<path class="st0" d="M385.2,167.6c6.4,0,12.6,0.3,18.8,1.1C387.4,90.3,303.3,32,207.7,32C100.5,32,13,104.8,13,197.4
	c0,53.4,29.3,97.5,77.9,131.6l-19.3,58.6l68-34.1c24.4,4.8,43.8,9.7,68.2,9.7c6.2,0,12.1-0.3,18.3-0.8c-4-12.9-6.2-26.6-6.2-40.8
	C219.8,236.7,292.8,167.6,385.2,167.6L385.2,167.6z M280.7,114.7c14.5,0,24.2,9.7,24.2,24.4c0,14.5-9.7,24.2-24.2,24.2
	c-14.8,0-29.3-9.7-29.3-24.2C251.5,124.4,266,114.7,280.7,114.7z M144.3,163.3c-14.5,0-29.3-9.7-29.3-24.2
	c0-14.8,14.8-24.4,29.3-24.4c14.8,0,24.4,9.7,24.4,24.4C168.7,153.7,159.1,163.3,144.3,163.3z M563,319.4
	c0-77.9-77.9-141.3-165.4-141.3c-92.7,0-165.4,63.4-165.4,141.3S305,460.7,397.6,460.7c19.3,0,38.9-5.1,58.6-9.9l53.4,29.3
	l-14.8-48.6C534,402.1,563,363.2,563,319.4z M343.9,294.9c-9.7,0-19.3-9.7-19.3-19.6c0-9.7,9.7-19.3,19.3-19.3
	c14.8,0,24.4,9.7,24.4,19.3C368.3,285.3,358.6,294.9,343.9,294.9z M451,294.9c-9.7,0-19.3-9.7-19.3-19.6c0-9.7,9.7-19.3,19.3-19.3
	c14.5,0,24.4,9.7,24.4,19.3C475.5,285.3,465.5,294.9,451,294.9z"/>
</svg>
